Coordinates
version=1
nRows=24
nColumns=22
inDegrees=yes

Units are S.I. units (second, meters, Newtons, ...)
If the header above contains a line with 'inDegrees', this indicates whether rotational values are in degrees (yes) or radians (no).

endheader
time	pelvis_tilt	pelvis_list	pelvis_rotation	pelvis_tx	pelvis_ty	pelvis_tz	hip_flexion_r	hip_adduction_r	hip_rotation_r	knee_angle_r	ankle_angle_r	subtalar_angle_r	hip_flexion_l	hip_adduction_l	hip_rotation_l	knee_angle_l	ankle_angle_l	subtalar_angle_l	lumbar_extension	lumbar_bending	lumbar_rotation
      0.01000000	      0.78589322	     -2.20438869	     -2.28804790	      1.05885058	      0.92527867	      0.11245110	     -3.64079855	      3.58883159	      0.56942422	     -6.63561788	      4.41719977	     -0.17629903	     -3.20856411	     -3.09202164	    -11.68063872	     -9.50511648	      8.73012566	     -1.62829830	     -3.93463851	     -1.22871351	      0.83317962
      0.02000000	      0.78965835	     -2.20519572	     -2.28260673	      1.05885080	      0.92527878	      0.11238168	     -3.63970392	      3.58694137	      0.56979330	     -6.64405408	      4.41396638	     -0.17717411	     -3.20869944	     -3.08892686	    -11.67828496	     -9.50974405	      8.73232402	     -1.62847344	     -3.93569820	     -1.22386808	      0.83847802
      0.03000000	      0.80163161	     -2.20998102	     -2.28513181	      1.05878297	      0.92528753	      0.11233350	     -3.62527724	      3.58954676	      0.56410242	     -6.68603407	      4.40637199	     -0.18160359	     -3.20426397	     -3.09261491	    -11.66504837	     -9.53675054	      8.73841846	     -1.62809572	     -3.96042076	     -1.22124734	      0.86331203
      0.04000000	      0.80948287	     -2.21546628	     -2.28708630	      1.05873551	      0.92528919	      0.11226372	     -3.60881664	      3.59224742	      0.55280220	     -6.72712636	      4.41167515	     -0.18773734	     -3.19854755	     -3.09479870	    -11.66841862	     -9.55832543	      8.74502730	     -1.62572734	     -3.97545054	     -1.21204977	      0.88582338
      0.05000000	      0.81447519	     -2.21913789	     -2.29043317	      1.05868761	      0.92528515	      0.11219143	     -3.59073543	      3.59214031	      0.54631411	     -6.76573685	      4.42175847	     -0.19475771	     -3.18939842	     -3.09508172	    -11.67367430	     -9.58066360	      8.75022560	     -1.62137303	     -3.98602155	     -1.20475664	      0.90773158
      0.06000000	      0.81727567	     -2.22013392	     -2.28655214	      1.05867996	      0.92528018	      0.11209842	     -3.58839419	      3.58868481	      0.54714377	     -6.77392897	      4.42292429	     -0.19602671	     -3.18787829	     -3.08969138	    -11.67480356	     -9.58514635	      8.75083588	     -1.62043476	     -3.98507734	     -1.19671590	      0.91309147
      0.07000000	      0.79428469	     -2.22021291	     -2.30940104	      1.05859120	      0.92523082	      0.11206309	     -3.51458222	      3.58675061	      0.54383263	     -6.85806737	      4.47338096	     -0.23169993	     -3.13326594	     -3.09054828	    -11.71158907	     -9.63968877	      8.77208261	     -1.59718266	     -3.96675901	     -1.19505667	      0.96020072
      0.08000000	      0.79686988	     -2.22121477	     -2.30663555	      1.05856405	      0.92522988	      0.11196755	     -3.51147053	      3.58235485	      0.54558373	     -6.86454386	      4.47174119	     -0.23263524	     -3.13020589	     -3.08453909	    -11.70980594	     -9.64280064	      8.77169655	     -1.59680178	     -3.97084185	     -1.18540632	      0.96488766
      0.09000000	      0.80729530	     -2.22490100	     -2.31475344	      1.05848126	      0.92523864	      0.11191152	     -3.49355320	      3.58200147	      0.54995307	     -6.91063294	      4.46615498	     -0.23806018	     -3.12183954	     -3.08451724	    -11.69581732	     -9.67235092	      8.77028924	     -1.59609667	     -3.99381484	     -1.18027428	      0.99020589
      0.10000000	      0.81048451	     -2.22610874	     -2.31331306	      1.05846234	      0.92523836	      0.11182132	     -3.49144268	      3.57777139	      0.55053388	     -6.91807176	      4.46647258	     -0.23929901	     -3.11988863	     -3.07839010	    -11.69644335	     -9.67693517	      8.77092929	     -1.59606211	     -3.99438495	     -1.16945828	      0.99501765
      0.11000000	      0.82137561	     -2.23212762	     -2.32397650	      1.05837770	      0.92524960	      0.11177481	     -3.47421014	      3.58033582	      0.55158067	     -6.96355535	      4.46929465	     -0.24615758	     -3.11019009	     -3.08143111	    -11.69405676	     -9.71101828	      8.77571829	     -1.59865514	     -4.01784038	     -1.16101156	      1.02090331
      0.12000000	      0.82407954	     -2.23381389	     -2.32466818	      1.05835323	      0.92525053	      0.11169172	     -3.47301804	      3.57611364	      0.55156903	     -6.96772547	      4.47037913	     -0.24734011	     -3.10765458	     -3.07595534	    -11.69568527	     -9.71541187	      8.77730386	     -1.59928512	     -4.01918518	     -1.14985147	      1.02401079
      0.13000000	      0.83653859	     -2.24215876	     -2.33381115	      1.05827781	      0.92526277	      0.11164473	     -3.46642224	      3.58100141	      0.55220865	     -6.99740069	      4.47568761	     -0.25364354	     -3.09833938	     -3.08184622	    -11.70008085	     -9.75379218	      8.78860333	     -1.60664933	     -4.04236982	     -1.13751056	      1.04386995
      0.14000000	      0.83916349	     -2.24395421	     -2.33544968	      1.05824617	      0.92526570	      0.11156663	     -3.46654280	      3.57678274	      0.55178790	     -6.99796091	      4.47640677	     -0.25454029	     -3.09578881	     -3.07677012	    -11.70193932	     -9.75762092	      8.79084571	     -1.60783935	     -4.04456193	     -1.12590926	      1.04538245
      0.15000000	      0.85574703	     -2.25553474	     -2.34137312	      1.05817697	      0.92528412	      0.11152107	     -3.47533509	      3.58493142	      0.55016858	     -7.00802514	      4.47893019	     -0.25989354	     -3.08781151	     -3.08792594	    -11.71181266	     -9.80344346	      8.81044001	     -1.62138373	     -4.07055455	     -1.10959924	      1.06016887
      0.16000000	      0.85769612	     -2.25721777	     -2.34446733	      1.05813005	      0.92528819	      0.11145233	     -3.47511347	      3.58126728	      0.54916439	     -7.00521402	      4.47879123	     -0.26038487	     -3.08506375	     -3.08306245	    -11.71332711	     -9.80504745	      8.81265746	     -1.62264129	     -4.07454580	     -1.09880154	      1.05977025
      0.17000000	      0.86095830	     -2.25945294	     -2.35186435	      1.05807427	      0.92529624	      0.11139358	     -3.47635858	      3.57803290	      0.54701710	     -7.00119287	      4.47818487	     -0.26081180	     -3.08157345	     -3.07940934	    -11.71315255	     -9.81200325	      8.81534846	     -1.62452110	     -4.08087896	     -1.08738097	      1.05990624
      0.18000000	      0.89040162	     -2.28546721	     -2.34409878	      1.05799978	      0.92533223	      0.11133929	     -3.51450048	      3.60232266	      0.53917915	     -6.98067050	      4.45555137	     -0.26369866	     -3.07814740	     -3.11034925	    -11.74156457	     -9.87508095	      8.86692524	     -1.65883992	     -4.12286878	     -1.05358075	      1.05234791
      0.19000000	      0.89205391	     -2.28662330	     -2.35155737	      1.05792568	      0.92533927	      0.11129039	     -3.51298426	      3.59881118	      0.53741457	     -6.97589053	      4.45485631	     -0.26372938	     -3.07373451	     -3.10617444	    -11.73858645	     -9.87761867	      8.86711460	     -1.65975021	     -4.12935460	     -1.04544887	      1.05344404
      0.20000000	      0.89464482	     -2.28779518	     -2.35876816	      1.05784420	      0.92534807	      0.11123837	     -3.51206693	      3.59506968	      0.53547881	     -6.97078156	      4.45332631	     -0.26365331	     -3.06781003	     -3.10219792	    -11.73458073	     -9.88446650	      8.86749351	     -1.66104249	     -4.13747110	     -1.03621177	      1.05539504
      0.21000000	      0.90517164	     -2.29264199	     -2.35690746	      1.05774245	      0.92536772	      0.11119018	     -3.51969339	      3.59674416	      0.53329505	     -6.96553248	      4.44089198	     -0.26236807	     -3.05039250	     -3.10703596	    -11.72143125	     -9.92889025	      8.87210626	     -1.66993144	     -4.15683440	     -1.02703153	      1.06544237
      0.22000000	      0.90609270	     -2.29418994	     -2.36098947	      1.05764988	      0.92537709	      0.11114782	     -3.51586203	      3.59518202	      0.53137810	     -6.96082502	      4.43956537	     -0.26215050	     -3.04397520	     -3.10424884	    -11.72165210	     -9.92974754	      8.87377846	     -1.67128499	     -4.16528229	     -1.01982423	      1.06334919
      0.23000000	      0.90850328	     -2.29588949	     -2.36586807	      1.05756341	      0.92538897	      0.11110041	     -3.51308265	      3.59265779	      0.52965964	     -6.95830309	      4.43688663	     -0.26181691	     -3.03691973	     -3.10153049	    -11.71991166	     -9.93712662	      8.87525403	     -1.67344348	     -4.17269128	     -1.00970752	      1.06173062
      0.24000000	      0.90509055	     -2.32104601	     -2.34652216	      1.05744348	      0.92538742	      0.11104745	     -3.50162049	      3.61959592	      0.51028891	     -6.95984744	      4.39949101	     -0.25236717	     -2.98538911	     -3.13585438	    -11.72942334	    -10.01458778	      8.91367578	     -1.71794562	     -4.17890860	     -0.97594907	      1.03812355
